<svg width="81" height="71" viewBox="0 0 81 71" fill="none" xmlns="http://www.w3.org/2000/svg">
<path d="M70.2917 54.4583C70.2917 55.8949 69.721 57.2727 68.7052 58.2885C67.6894 59.3043 66.3116 59.875 64.875 59.875H16.125C14.6885 59.875 13.3107 59.3043 12.2949 58.2885C11.2791 57.2727 10.7084 55.8949 10.7084 54.4583V24.6667C10.7084 23.2301 11.2791 21.8523 12.2949 20.8365C13.3107 19.8207 14.6885 19.25 16.125 19.25H26.9584L32.375 11.125H48.625L54.0417 19.25H64.875C66.3116 19.25 67.6894 19.8207 68.7052 20.8365C69.721 21.8523 70.2917 23.2301 70.2917 24.6667V54.4583Z" stroke="#0E5747" stroke-width="3" stroke-linecap="round" stroke-linejoin="round"/>
<path d="M40.5 49.0417C46.483 49.0417 51.3333 44.1914 51.3333 38.2083C51.3333 32.2252 46.483 27.375 40.5 27.375C34.5169 27.375 29.6666 32.2252 29.6666 38.2083C29.6666 44.1914 34.5169 49.0417 40.5 49.0417Z" stroke="#0E5747" stroke-width="3" stroke-linecap="round" stroke-linejoin="round"/>
<circle cx="66" cy="56" r="15" fill="#138F71"/>
<path d="M71.1017 57.1H67.3217V60.98H64.6817V57.1H60.9017V54.66H64.6817V50.78H67.3217V54.66H71.1017V57.1Z" fill="white"/>
</svg>
