<svg width="24" height="24" viewBox="0 0 24 24" fill="none" xmlns="http://www.w3.org/2000/svg">
<path d="M16.5 1.6875H7.5C6.95299 1.6875 6.42839 1.9048 6.04159 2.29159C5.6548 2.67839 5.4375 3.20299 5.4375 3.75V20.25C5.4375 20.797 5.6548 21.3216 6.04159 21.7084C6.42839 22.0952 6.95299 22.3125 7.5 22.3125H16.5C17.047 22.3125 17.5716 22.0952 17.9584 21.7084C18.3452 21.3216 18.5625 20.797 18.5625 20.25V3.75C18.5625 3.20299 18.3452 2.67839 17.9584 2.29159C17.5716 1.9048 17.047 1.6875 16.5 1.6875ZM17.4375 20.25C17.4375 20.4986 17.3387 20.7371 17.1629 20.9129C16.9871 21.0887 16.7486 21.1875 16.5 21.1875H7.5C7.25136 21.1875 7.0129 21.0887 6.83709 20.9129C6.66127 20.7371 6.5625 20.4986 6.5625 20.25V3.75C6.5625 3.50136 6.66127 3.2629 6.83709 3.08709C7.0129 2.91127 7.25136 2.8125 7.5 2.8125H16.5C16.7486 2.8125 16.9871 2.91127 17.1629 3.08709C17.3387 3.2629 17.4375 3.50136 17.4375 3.75V20.25ZM15.5625 5.25C15.5625 5.39918 15.5032 5.54226 15.3977 5.64775C15.2923 5.75324 15.1492 5.8125 15 5.8125H9C8.85082 5.8125 8.70774 5.75324 8.60225 5.64775C8.49676 5.54226 8.4375 5.39918 8.4375 5.25C8.4375 5.10082 8.49676 4.95774 8.60225 4.85225C8.70774 4.74676 8.85082 4.6875 9 4.6875H15C15.1492 4.6875 15.2923 4.74676 15.3977 4.85225C15.5032 4.95774 15.5625 5.10082 15.5625 5.25Z" fill="white"/>
</svg>
