<svg width="32" height="32" viewBox="0 0 32 32" fill="none" xmlns="http://www.w3.org/2000/svg">
<g clip-path="url(#clip0_449_475)">
<g clip-path="url(#clip1_449_475)">
<path d="M4.7226 6.91775C4.73398 6.91775 4.74485 6.9225 4.75258 6.93085C4.88856 7.07784 5.00404 7.20561 5.12255 7.33036C5.91887 8.1636 6.81794 8.85877 7.86792 9.34363C8.98212 9.85899 10.1525 10.0789 11.3791 10.0276C12.3119 9.98743 13.2094 9.78032 14.0988 9.51702C14.2048 9.48491 14.3123 9.45601 14.4199 9.43033C14.6575 9.37574 14.8084 9.22964 14.8855 9.00166C15.1199 8.29525 15.3559 7.59045 15.5903 6.88403C15.6047 6.83908 15.6256 6.79413 15.6336 6.74917C15.6641 6.57097 15.791 6.4923 15.9451 6.44092C16.3657 6.30285 16.7848 6.15996 17.2086 6.03152C18.1912 5.7313 19.1833 5.47282 20.198 5.30745C20.487 5.26089 20.7856 5.21112 21.0746 5.23039C21.7296 5.27374 22.3108 5.92396 22.1117 6.67693C21.9608 7.24848 21.8404 7.82324 21.7858 8.41085C21.7312 8.99364 21.7409 9.57642 21.7666 10.1608C21.7874 10.628 21.9865 11.0342 22.1326 11.4597C22.1583 11.5338 22.1226 11.6151 22.0489 11.6422C21.9439 11.6807 21.84 11.7183 21.7361 11.7567C21.3491 11.8963 20.9622 12.036 20.5753 12.1757C20.2847 12.2817 20.129 12.5305 20.1627 12.8355C20.1916 13.1005 20.4083 13.3172 20.6973 13.3461C20.7969 13.3557 20.9076 13.3349 21.0024 13.3011C21.3795 13.169 21.755 13.0336 22.1352 12.8961C22.3954 12.802 22.6827 12.9347 22.7794 13.1939C22.8181 13.2977 22.857 13.4019 22.8963 13.5072C22.9277 13.5916 22.887 13.6885 22.8021 13.7186C22.2964 13.9032 21.789 14.083 21.2849 14.2708C20.9157 14.4073 20.768 14.8055 20.9542 15.1426C21.0971 15.4011 21.4021 15.5119 21.7023 15.4043C22.1968 15.2293 22.6897 15.0479 23.1842 14.8697C23.2916 14.8311 23.4106 14.8869 23.4508 14.9937C23.4883 15.0938 23.5259 15.1935 23.5637 15.2936C23.6555 15.5373 23.5399 15.8107 23.2998 15.9116C22.9273 16.069 22.5532 16.2263 22.1792 16.3837C21.8645 16.5169 21.7168 16.8717 21.8484 17.18C21.9833 17.4995 22.3301 17.6311 22.656 17.493C23.1392 17.2875 23.6241 17.0853 24.109 16.8814C24.1355 16.8696 24.167 16.886 24.177 16.9133C24.2301 17.057 24.2829 17.1997 24.3357 17.3431C24.4126 17.5519 24.3203 17.7858 24.1218 17.8864C23.7269 18.0855 23.3287 18.2797 22.9354 18.4836C22.7315 18.5896 22.6223 18.7678 22.6175 18.999C22.6127 19.2334 22.7154 19.418 22.9177 19.5352C23.12 19.6508 23.3287 19.6396 23.5358 19.5352C23.9564 19.3217 24.3787 19.1098 24.8009 18.8978C24.8503 18.8717 24.9113 18.8972 24.9313 18.9494C24.9768 19.068 25.0206 19.1841 25.0674 19.2992C25.0899 19.3522 25.1204 19.4084 25.1605 19.4485C25.4576 19.7487 25.7562 20.0474 26.0564 20.3444C26.0933 20.3797 26.1415 20.4102 26.1897 20.4279C27.5784 20.8967 28.9655 21.3655 30.3559 21.8311C30.555 21.8985 30.7107 22.0157 30.7813 22.2083C30.8761 22.4652 30.9644 22.7301 31.0141 22.9982C31.1008 23.4719 31.1859 23.9487 31.2164 24.4271C31.2678 25.2411 30.9772 25.9379 30.38 26.4982C29.818 27.0264 29.1325 27.3186 28.3892 27.4647C27.8738 27.5658 27.3488 27.6236 26.8286 27.6975C26.18 27.7906 25.5298 27.8837 24.8812 27.9752C24.4012 28.0427 23.9227 28.131 23.4411 28.1695C23.1344 28.1952 22.8198 28.1647 22.5115 28.131C21.6092 28.0282 20.7519 27.7697 19.9508 27.3379C19.1175 26.8899 18.2843 26.4372 17.4478 25.9941C15.3141 24.8654 13.1805 23.7384 11.0452 22.6129C9.49267 21.7941 7.94338 20.9721 6.38767 20.1581C5.54158 19.715 4.71476 19.243 3.95055 18.6667C3.25538 18.1401 2.60355 17.5653 2.01916 16.9199C1.71893 16.5892 1.43958 16.2392 1.1522 15.8972C1.00128 15.719 0.975594 15.5151 1.01894 15.2903C1.3577 13.5693 1.86664 11.9012 2.58268 10.2989C2.93749 9.50578 3.3212 8.72552 3.84298 8.02553C4.11856 7.65492 4.3922 7.3015 4.69085 6.93289C4.6986 6.92332 4.71028 6.91775 4.7226 6.91775ZM30.0219 24.6647C30.0219 24.6327 29.9902 24.6103 29.9601 24.6214C29.9175 24.637 29.8778 24.6516 29.8373 24.6647C29.3765 24.8124 28.8997 24.8494 28.4197 24.8526C27.4034 24.859 26.3887 24.8526 25.3725 24.859C25.1589 24.859 24.9422 24.8863 24.7303 24.9248C24.109 25.0372 23.5053 25.2202 22.9113 25.4305C22.8101 25.4659 22.7122 25.4723 22.6175 25.4225C21.8709 25.0308 21.1629 24.5845 20.5255 24.029C19.9684 23.5441 19.5093 22.9758 19.087 22.3737C18.8414 22.0221 18.5765 21.6898 18.2297 21.4249C17.5763 20.924 16.8682 20.598 16.0189 20.6639C15.7508 20.6847 15.4779 20.6976 15.2114 20.6703C14.6479 20.6157 14.1164 20.4263 13.6139 20.1758C12.8995 19.821 12.1979 19.4389 11.4883 19.0744C10.7482 18.6939 10.1333 18.1625 9.60184 17.53C9.03671 16.8573 8.57273 16.1155 8.16172 15.3417C7.73467 14.5358 7.23215 13.786 6.61083 13.1181C5.86749 12.3186 5.02462 11.6507 4.02119 11.2028C3.90306 11.1497 3.78163 11.1043 3.66054 11.0566C3.61777 11.0397 3.56568 11.0571 3.54918 11.1C2.98726 12.4438 2.89093 13.4456 2.58268 14.8697C2.55699 14.836 2.57305 14.9114 2.58268 14.8697C3.60858 16.2119 4.86246 17.1655 6.35235 17.9602C8.32548 19.0118 10.0128 19.9548 11.9892 21C13.5995 21.8509 15.2114 22.8254 16.8201 23.678C18.0483 24.3282 19.2749 25.6055 20.4998 26.2606C21.1757 26.6218 21.895 26.8418 22.6544 26.9285C22.8904 26.9557 23.1328 26.9863 23.3656 26.9606C23.9163 26.9012 24.4638 26.808 25.0145 26.7294C25.6165 26.6443 26.2186 26.5592 26.8206 26.4741C27.2573 26.4115 27.694 26.3617 28.1275 26.2798C28.6236 26.1867 29.0924 26.0149 29.4873 25.6842C29.8213 25.4049 29.9979 25.1111 30.0219 24.6647Z" fill="#138F71"/>
<path d="M5.65073 6.10304C5.62114 6.06851 5.6306 6.01445 5.66584 5.98571C6.05469 5.66853 6.43462 5.34827 6.82755 5.04824C7.31401 4.67577 7.83579 4.35789 8.40734 4.1267C8.56468 4.06248 8.72041 3.98863 8.89862 4.00147C9.18279 4.02073 9.43325 4.24871 9.45572 4.53128C9.47338 4.73678 9.47499 4.94228 9.48783 5.14939C9.51673 5.62943 9.68531 6.06612 9.87636 6.5012C10.183 7.19959 10.7273 7.65554 11.3662 8.01999C11.6595 8.18769 11.9658 8.32629 12.2831 8.44489C12.4144 8.49397 12.4034 8.6959 12.2653 8.71997C11.6536 8.82594 11.0371 8.85805 10.4174 8.79864C9.51513 8.71355 8.67225 8.43741 7.88556 7.98948C7.02342 7.4982 6.29774 6.84798 5.65073 6.10304Z" fill="#138F71"/>
</g>
</g>
<defs>
<clipPath id="clip0_449_475">
<rect width="32" height="32" fill="white"/>
</clipPath>
<clipPath id="clip1_449_475">
<rect width="32" height="32" fill="white"/>
</clipPath>
</defs>
</svg>
