<svg width="16" height="13" viewBox="0 0 16 13" fill="none" xmlns="http://www.w3.org/2000/svg">
<path d="M2.3613 1.45909C2.36699 1.45909 2.37242 1.46146 2.37629 1.46564C2.44428 1.53913 2.50202 1.60302 2.56127 1.66539C2.95943 2.08201 3.40897 2.4296 3.93396 2.67203C4.49106 2.92971 5.07626 3.03968 5.68955 3.014C6.15594 2.99393 6.60468 2.89037 7.04939 2.75872C7.10237 2.74267 7.15616 2.72822 7.20994 2.71538C7.32875 2.68808 7.40421 2.61503 7.44274 2.50105C7.55994 2.14784 7.67794 1.79544 7.79514 1.44223C7.80236 1.41975 7.8128 1.39728 7.81681 1.3748C7.83207 1.2857 7.89548 1.24636 7.97255 1.22067C8.18286 1.15164 8.39238 1.08019 8.6043 1.01598C9.09558 0.865863 9.59167 0.736622 10.099 0.65394C10.2435 0.63066 10.3928 0.605775 10.5373 0.615408C10.8648 0.637082 11.1554 0.962192 11.0559 1.33868C10.9804 1.62445 10.9202 1.91183 10.8929 2.20564C10.8656 2.49703 10.8704 2.78843 10.8833 3.08062C10.8937 3.31422 10.9933 3.51731 11.0663 3.73004V3.73004C11.0791 3.76714 11.0613 3.80779 11.0245 3.82129C10.9719 3.84054 10.92 3.85935 10.868 3.87855C10.6746 3.94839 10.4811 4.01822 10.2876 4.08806C10.1424 4.14104 10.0645 4.26547 10.0813 4.41799C10.0958 4.55044 10.2042 4.65881 10.3487 4.67326C10.3984 4.67808 10.4538 4.66764 10.5012 4.65078C10.6897 4.5847 10.8775 4.517 11.0676 4.44826C11.1977 4.40122 11.3413 4.46757 11.3897 4.59718C11.409 4.64904 11.4285 4.70117 11.4481 4.75382C11.4639 4.796 11.4435 4.84444 11.401 4.8595V4.8595C11.1482 4.95181 10.8945 5.04172 10.6425 5.13564C10.4578 5.20387 10.384 5.40295 10.4771 5.57153C10.5485 5.70077 10.7011 5.75616 10.8512 5.70237C11.0984 5.61487 11.3449 5.52416 11.5921 5.43506V5.43506C11.6458 5.41578 11.7053 5.44366 11.7254 5.49708C11.7442 5.5471 11.763 5.59698 11.7818 5.64702C11.8277 5.76888 11.7699 5.90557 11.6499 5.95604V5.95604C11.4637 6.03471 11.2766 6.11338 11.0896 6.19204C10.9322 6.25867 10.8584 6.43608 10.9242 6.5902C10.9917 6.74995 11.165 6.81577 11.328 6.74674C11.5696 6.64399 11.8121 6.54284 12.0545 6.44089V6.44089C12.0678 6.43499 12.0835 6.44321 12.0885 6.45684C12.1151 6.52873 12.1414 6.60008 12.1678 6.67176C12.2063 6.77617 12.1601 6.89309 12.0609 6.94341V6.94341C11.8634 7.04295 11.6643 7.14008 11.4677 7.24203C11.3657 7.29501 11.3111 7.38411 11.3087 7.49971C11.3063 7.61691 11.3577 7.70922 11.4588 7.76782C11.56 7.82562 11.6643 7.82 11.7679 7.76782C11.9782 7.66106 12.1893 7.5551 12.4005 7.44914V7.44914C12.4251 7.43608 12.4556 7.44884 12.4656 7.47489C12.4884 7.53422 12.5103 7.59227 12.5337 7.64982C12.545 7.67631 12.5602 7.70441 12.5803 7.72448C12.7288 7.87459 12.8781 8.0239 13.0282 8.1724C13.0467 8.19007 13.0707 8.20532 13.0948 8.21415C13.7892 8.44855 14.4828 8.68295 15.1779 8.91574C15.2775 8.94946 15.3553 9.00806 15.3907 9.10439C15.438 9.23282 15.4822 9.36528 15.5071 9.49933C15.5504 9.73614 15.593 9.97456 15.6082 10.2138C15.6339 10.6208 15.4886 10.9692 15.19 11.2493C14.909 11.5134 14.5663 11.6595 14.1946 11.7326C13.9369 11.7831 13.6744 11.812 13.4143 11.849C13.09 11.8955 12.7649 11.9421 12.4406 11.9878C12.2006 12.0215 11.9614 12.0657 11.7205 12.085C11.5672 12.0978 11.4099 12.0826 11.2558 12.0657C10.8046 12.0143 10.3759 11.8851 9.97538 11.6691C9.55876 11.4452 9.14214 11.2188 8.72391 10.9972C7.65707 10.4329 6.59023 9.8694 5.52258 9.30668C4.74633 8.89728 3.97169 8.48628 3.19383 8.07929C2.77079 7.85773 2.35738 7.62173 1.97527 7.33354C1.62769 7.07024 1.30178 6.78286 1.00958 6.46016C0.859466 6.2948 0.719789 6.1198 0.576099 5.94881C0.500641 5.85971 0.487797 5.75776 0.509471 5.64538C0.678849 4.78484 0.933318 3.95079 1.29134 3.14966C1.46875 2.75311 1.6606 2.36297 1.92149 2.01298C2.05928 1.82767 2.1961 1.65096 2.34543 1.46666C2.3493 1.46187 2.35514 1.45909 2.3613 1.45909V1.45909ZM15.011 10.3326C15.011 10.3165 14.9951 10.3054 14.98 10.3109C14.9588 10.3187 14.9389 10.326 14.9187 10.3326C14.6883 10.4064 14.4499 10.4249 14.2098 10.4265C13.7017 10.4297 13.1944 10.4265 12.6862 10.4297C12.5795 10.4297 12.4711 10.4434 12.3651 10.4626C12.0545 10.5188 11.7526 10.6103 11.4556 10.7155C11.4051 10.7331 11.3561 10.7364 11.3087 10.7115C10.9355 10.5156 10.5815 10.2924 10.2628 10.0147C9.98421 9.77227 9.75463 9.4881 9.54351 9.18707C9.42069 9.01127 9.28824 8.8451 9.11485 8.71265C8.78813 8.46219 8.43412 8.29924 8.00947 8.33215C7.87541 8.34259 7.73895 8.34901 7.60569 8.33536C7.32393 8.30807 7.05822 8.21335 6.80697 8.08812C6.44975 7.91071 6.09895 7.71966 5.74414 7.53744C5.37408 7.34719 5.06663 7.08148 4.80092 6.7652C4.51836 6.42885 4.28636 6.05799 4.08086 5.67107C3.86733 5.26809 3.61608 4.89321 3.30542 4.55927C2.93375 4.15951 2.51231 3.82557 2.01059 3.6016C1.95153 3.57506 1.89082 3.55235 1.83027 3.52849C1.80888 3.52007 1.78284 3.52877 1.77459 3.55023V3.55023C1.49363 4.22212 1.44547 4.72303 1.29134 5.43506C1.2785 5.4182 1.28652 5.45593 1.29134 5.43506C1.80429 6.10615 2.43123 6.58298 3.17617 6.98034C4.16274 7.50613 5.00642 7.97764 5.99459 8.50022C6.79974 8.92567 7.60569 9.41294 8.41004 9.83919C9.02413 10.1643 9.63743 10.803 10.2499 11.1305C10.5879 11.3111 10.9475 11.4211 11.3272 11.4644C11.4452 11.4781 11.5664 11.4933 11.6828 11.4805C11.9582 11.4508 12.2319 11.4042 12.5072 11.3649C12.8083 11.3224 13.1093 11.2798 13.4103 11.2373C13.6287 11.206 13.847 11.1811 14.0637 11.1401C14.3118 11.0936 14.5462 11.0077 14.7437 10.8423C14.9106 10.7026 14.9989 10.5557 15.011 10.3326V10.3326Z" fill="white" fill-opacity="0.9"/>
<path d="M2.82535 1.05152C2.81055 1.03426 2.81528 1.00723 2.8329 0.992855C3.02733 0.834263 3.21729 0.674136 3.41376 0.524121C3.65699 0.337885 3.91788 0.178943 4.20366 0.0633482C4.28233 0.0312386 4.36019 -0.00568748 4.4493 0.000734441C4.59138 0.0103673 4.71661 0.124356 4.72785 0.265639C4.73668 0.368389 4.73748 0.47114 4.7439 0.574694C4.75835 0.814713 4.84264 1.03306 4.93816 1.2506C5.09149 1.59979 5.36362 1.82777 5.68311 2.00999C5.82972 2.09384 5.98291 2.16315 6.14154 2.22245C6.20719 2.24699 6.20168 2.34795 6.13264 2.35999V2.35999C5.8268 2.41297 5.51854 2.42902 5.20869 2.39932C4.75755 2.35678 4.33611 2.21871 3.94277 1.99474C3.51169 1.7491 3.14886 1.42399 2.82535 1.05152V1.05152Z" fill="white" fill-opacity="0.9"/>
</svg>
