<svg width="31" height="25" viewBox="0 0 31 25" fill="none" xmlns="http://www.w3.org/2000/svg">
<path d="M3.7226 2.91769C3.73398 2.91769 3.74485 2.92244 3.75258 2.93079C3.88856 3.07778 4.00404 3.20555 4.12255 3.3303C4.91887 4.16354 5.81794 4.85871 6.86792 5.34357C7.98212 5.85893 9.1525 6.07884 10.3791 6.02754C11.3119 5.98737 12.2094 5.78026 13.0988 5.51696C13.2048 5.48485 13.3123 5.45595 13.4199 5.43027C13.6575 5.37568 13.8084 5.22958 13.8855 5.0016C14.1199 4.29519 14.3559 3.59039 14.5903 2.88397C14.6047 2.83902 14.6256 2.79407 14.6336 2.74911C14.6641 2.57091 14.791 2.49224 14.9451 2.44086C15.3657 2.30279 15.7848 2.1599 16.2086 2.03146C17.1912 1.73124 18.1833 1.47276 19.198 1.30739C19.487 1.26083 19.7856 1.21106 20.0746 1.23033C20.7296 1.27368 21.3108 1.9239 21.1117 2.67687C20.9608 3.24842 20.8404 3.82318 20.7858 4.41079C20.7312 4.99358 20.7409 5.57636 20.7666 6.16074C20.7874 6.62794 20.9865 7.03414 21.1326 7.45964C21.1583 7.53374 21.1226 7.61504 21.0489 7.64214C20.9439 7.68064 20.84 7.71824 20.7361 7.75664C20.3491 7.89624 19.9622 8.03594 19.5753 8.17564C19.2847 8.28164 19.129 8.53044 19.1627 8.83544C19.1916 9.10044 19.4083 9.31714 19.6973 9.34604C19.7969 9.35564 19.9076 9.33484 20.0024 9.30104C20.3795 9.16894 20.755 9.03354 21.1352 8.89604C21.3954 8.80194 21.6827 8.93464 21.7794 9.19384C21.8181 9.29764 21.857 9.40184 21.8963 9.50714C21.9277 9.59154 21.887 9.68844 21.8021 9.71854C21.2964 9.90314 20.789 10.0829 20.2849 10.2707C19.9157 10.4072 19.768 10.8054 19.9542 11.1425C20.0971 11.401 20.4021 11.5118 20.7023 11.4042C21.1968 11.2292 21.6897 11.0478 22.1842 10.8696C22.2916 10.831 22.4106 10.8868 22.4508 10.9936C22.4883 11.0937 22.5259 11.1934 22.5637 11.2935C22.6555 11.5372 22.5399 11.8106 22.2998 11.9115C21.9273 12.0689 21.5532 12.2262 21.1792 12.3836C20.8645 12.5168 20.7168 12.8716 20.8484 13.1799C20.9833 13.4994 21.3301 13.631 21.656 13.4929C22.1392 13.2874 22.6241 13.0852 23.109 12.8813C23.1355 12.8695 23.167 12.8859 23.177 12.9132C23.2301 13.0569 23.2829 13.1996 23.3357 13.343C23.4126 13.5518 23.3203 13.7857 23.1218 13.8863C22.7269 14.0854 22.3287 14.2796 21.9354 14.4835C21.7315 14.5895 21.6223 14.7677 21.6175 14.9989C21.6127 15.2333 21.7154 15.4179 21.9177 15.5351C22.12 15.6507 22.3287 15.6395 22.5358 15.5351C22.9564 15.3216 23.3787 15.1097 23.8009 14.8977C23.8503 14.8716 23.9113 14.8971 23.9313 14.9493C23.9768 15.0679 24.0206 15.184 24.0674 15.2991C24.0899 15.3521 24.1204 15.4083 24.1605 15.4484C24.4576 15.7486 24.7562 16.0473 25.0564 16.3443C25.0933 16.3796 25.1415 16.4101 25.1897 16.4278C26.5784 16.8966 27.9655 17.3654 29.3559 17.831C29.555 17.8984 29.7107 18.0156 29.7813 18.2082C29.8761 18.4651 29.9644 18.73 30.0141 18.9981C30.1008 19.4718 30.1859 19.9486 30.2164 20.427C30.2678 21.241 29.9772 21.9378 29.38 22.4981C28.818 23.0263 28.1325 23.3185 27.3892 23.4646C26.8738 23.5657 26.3488 23.6235 25.8286 23.6974C25.18 23.7905 24.5298 23.8836 23.8812 23.9751C23.4012 24.0426 22.9227 24.1309 22.4411 24.1694C22.1344 24.1951 21.8198 24.1646 21.5115 24.1309C20.6092 24.0281 19.7519 23.7696 18.9508 23.3378C18.1175 22.8898 17.2843 22.4371 16.4478 21.994C14.3141 20.8653 12.1805 19.7383 10.0452 18.6128C8.49267 17.794 6.94338 16.972 5.38767 16.158C4.54158 15.7149 3.71476 15.2429 2.95055 14.6666C2.25538 14.14 1.60355 13.5652 1.01916 12.9198C0.718931 12.5891 0.439581 12.2391 0.152201 11.8971C0.00128128 11.7189 -0.0244047 11.515 0.0189413 11.2902C0.357701 9.56924 0.866641 7.90114 1.58268 6.29884C1.93749 5.50572 2.3212 4.72546 2.84298 4.02547C3.11856 3.65486 3.3922 3.30144 3.69085 2.93283C3.6986 2.92326 3.71028 2.91769 3.7226 2.91769ZM29.0219 20.6646C29.0219 20.6326 28.9902 20.6102 28.9601 20.6213C28.9175 20.6369 28.8778 20.6515 28.8373 20.6646C28.3765 20.8123 27.8997 20.8493 27.4197 20.8525C26.4034 20.8589 25.3887 20.8525 24.3725 20.8589C24.1589 20.8589 23.9422 20.8862 23.7303 20.9247C23.109 21.0371 22.5053 21.2201 21.9113 21.4304C21.8101 21.4658 21.7122 21.4722 21.6175 21.4224C20.8709 21.0307 20.1629 20.5844 19.5255 20.0289C18.9684 19.544 18.5093 18.9757 18.087 18.3736C17.8414 18.022 17.5765 17.6897 17.2297 17.4248C16.5763 16.9239 15.8682 16.5979 15.0189 16.6638C14.7508 16.6846 14.4779 16.6975 14.2114 16.6702C13.6479 16.6156 13.1164 16.4262 12.6139 16.1757C11.8995 15.8209 11.1979 15.4388 10.4883 15.0743C9.7482 14.6938 9.1333 14.1624 8.60184 13.5299C8.03671 12.8572 7.57273 12.1154 7.16172 11.3416C6.73467 10.5357 6.23215 9.78594 5.61083 9.11804C4.86749 8.31854 4.02462 7.65064 3.02119 7.20274C2.90306 7.14964 2.78163 7.10424 2.66054 7.05654C2.61777 7.03964 2.56568 7.05704 2.54918 7.09994C1.98726 8.44374 1.89093 9.44554 1.58268 10.8696C1.57305 10.9113 1.55699 10.8359 1.58268 10.8696C2.60858 12.2118 3.86246 13.1654 5.35235 13.9601C7.32548 15.0117 9.0128 15.9547 10.9892 16.9999C12.5995 17.8508 14.2114 18.8253 15.8201 19.6779C17.0483 20.3281 18.2749 21.6054 19.4998 22.2605C20.1757 22.6217 20.895 22.8417 21.6544 22.9284C21.8904 22.9556 22.1328 22.9862 22.3656 22.9605C22.9163 22.9011 23.4638 22.8079 24.0145 22.7293C24.6165 22.6442 25.2186 22.5591 25.8206 22.474C26.2573 22.4114 26.694 22.3616 27.1275 22.2797C27.6236 22.1866 28.0924 22.0148 28.4873 21.6841C28.8213 21.4048 28.9979 21.111 29.0219 20.6646Z" fill="#138F71"/>
<path d="M4.65043 2.10304C4.62084 2.06851 4.6303 2.01445 4.66554 1.98571C5.05439 1.66853 5.43432 1.34827 5.82725 1.04824C6.31371 0.675768 6.83549 0.357888 7.40704 0.126698C7.56438 0.0624779 7.72011 -0.0113719 7.89832 0.0014681C8.18249 0.0207281 8.43295 0.248708 8.45542 0.531278C8.47308 0.736778 8.47469 0.942278 8.48753 1.14939C8.51643 1.62943 8.68501 2.06612 8.87606 2.5012C9.1827 3.19959 9.727 3.65554 10.3659 4.01999C10.6592 4.18769 10.9655 4.32629 11.2828 4.44489C11.4141 4.49397 11.4031 4.6959 11.265 4.71997C10.6533 4.82594 10.0368 4.85805 9.4171 4.79864C8.51483 4.71355 7.67195 4.43741 6.88526 3.98948C6.02312 3.4982 5.29744 2.84798 4.65043 2.10304Z" fill="#138F71"/>
</svg>
