<svg width="32" height="32" viewBox="0 0 32 32" fill="none" xmlns="http://www.w3.org/2000/svg">
<path d="M2.80551 12.5104L3.68043 12.9807L2.80551 12.5104C2.6661 12.7697 2.57126 13.0506 2.525 13.3414C2.38139 14.2442 2.87155 14.9948 3.38631 15.5934C3.91185 16.2045 4.70253 16.9211 5.66118 17.79L5.71436 17.8382L6.2719 18.3435C7.26878 19.2471 7.56415 19.5356 7.73256 19.8649C7.84539 20.0856 7.92098 20.3231 7.9564 20.5679C8.0092 20.933 7.93497 21.3374 7.643 22.6485L7.54479 23.0895L7.53411 23.1374C7.29669 24.2034 7.10443 25.0667 7.01397 25.7297C6.92948 26.349 6.88407 27.0715 7.21872 27.6632C7.66477 28.4518 8.48513 28.955 9.38936 28.998C10.0668 29.0302 10.692 28.6675 11.2098 28.3141C11.7637 27.9362 12.4516 27.3778 13.3015 26.6878L13.3395 26.657C13.9318 26.1761 14.3351 25.8495 14.6695 25.6163C14.9937 25.3901 15.1975 25.2925 15.3725 25.2425C15.7825 25.1254 16.2175 25.1254 16.6275 25.2425C16.8025 25.2925 17.0063 25.3901 17.3305 25.6163C17.6649 25.8495 18.0682 26.1761 18.6605 26.657L18.6984 26.6878C19.5484 27.3778 20.2363 27.9362 20.7902 28.3141C21.308 28.6675 21.9332 29.0302 22.6106 28.998C23.5149 28.955 24.3352 28.4518 24.7813 27.6632C25.1159 27.0715 25.0705 26.349 24.986 25.7297C24.8956 25.0667 24.7033 24.2034 24.4659 23.1373L24.4552 23.0894L24.357 22.6485C24.065 21.3374 23.9908 20.933 24.0436 20.5679C24.079 20.3231 24.1546 20.0856 24.2674 19.8649C24.4358 19.5356 24.7312 19.2471 25.7281 18.3435L26.2856 17.8382L26.3389 17.7899C27.2975 16.9211 28.0882 16.2045 28.6137 15.5934C29.1285 14.9948 29.6186 14.2442 29.475 13.3414C29.4287 13.0506 29.3339 12.7697 29.1945 12.5104C28.7611 11.7042 27.9108 11.4028 27.1347 11.2361C26.3393 11.0652 25.2651 10.9694 23.9599 10.853L23.889 10.8467C23.0659 10.7732 22.5095 10.7228 22.0763 10.6472C21.6596 10.5744 21.428 10.4891 21.2488 10.3815C21.1228 10.3059 21.0046 10.2183 20.8958 10.12L20.2257 10.8623L20.8958 10.12C20.7403 9.97969 20.5927 9.78489 20.405 9.41323C20.2093 9.02581 20.0029 8.51538 19.6979 7.7578L19.672 7.69353C19.1686 6.44321 18.7566 5.41982 18.3586 4.69257C17.975 3.99148 17.4426 3.24698 16.5477 3.05738C16.1866 2.98087 15.8134 2.98087 15.4523 3.05738C14.5574 3.24698 14.025 3.99148 13.6414 4.69257C13.2434 5.41981 12.8314 6.44317 12.328 7.69347L12.3021 7.7578C11.9971 8.51538 11.7907 9.02581 11.595 9.41323C11.4073 9.78489 11.2597 9.97969 11.1042 10.12L11.6965 10.7761L11.1042 10.12C10.9954 10.2183 10.8772 10.3059 10.7512 10.3815C10.572 10.4891 10.3404 10.5744 9.92371 10.6472C9.49047 10.7228 8.93413 10.7732 8.11101 10.8467L8.0401 10.853C6.73486 10.9694 5.66067 11.0652 4.86528 11.2361C4.08916 11.4028 3.2389 11.7042 2.80551 12.5104Z" fill="#138F71" stroke="#138F71" stroke-width="2"/>
</svg>
