<svg width="32" height="32" viewBox="0 0 32 32" fill="none" xmlns="http://www.w3.org/2000/svg">
<path d="M2.5 10C2.5 7.17157 2.5 5.75736 3.37868 4.87868C4.25736 4 5.67157 4 8.5 4H23.5C26.3284 4 27.7426 4 28.6213 4.87868C29.5 5.75736 29.5 7.17157 29.5 10V11.875C29.5 11.9911 29.5 12.0491 29.4952 12.098C29.4484 12.5728 29.0728 12.9484 28.598 12.9952C28.5491 13 28.4911 13 28.375 13H28C26.3431 13 25 14.3431 25 16C25 17.6569 26.3431 19 28 19H28.375C28.4911 19 28.5491 19 28.598 19.0048C29.0728 19.0516 29.4484 19.4272 29.4952 19.902C29.5 19.9509 29.5 20.0089 29.5 20.125V22C29.5 24.8284 29.5 26.2426 28.6213 27.1213C27.7426 28 26.3284 28 23.5 28H8.5C5.67157 28 4.25736 28 3.37868 27.1213C2.5 26.2426 2.5 24.8284 2.5 22V20.125C2.5 20.0089 2.5 19.9509 2.50482 19.902C2.55158 19.4272 2.92721 19.0516 3.40198 19.0048C3.45087 19 3.50892 19 3.625 19H4C5.65685 19 7 17.6569 7 16C7 14.3431 5.65685 13 4 13H3.625C3.50892 13 3.45087 13 3.40198 12.9952C2.92721 12.9484 2.55158 12.5728 2.50482 12.098C2.5 12.0491 2.5 11.9911 2.5 11.875V10Z" fill="#138F71"/>
<path d="M15.5964 11.552C15.7961 11.2788 16.2039 11.2788 16.4036 11.552L17.7272 13.3623C17.7889 13.4467 17.8756 13.5096 17.9749 13.5422L20.1056 14.2416C20.4271 14.3472 20.5531 14.735 20.355 15.0094L19.0424 16.8276C18.9812 16.9124 18.9481 17.0142 18.9478 17.1187L18.941 19.3613C18.94 19.6997 18.6101 19.9393 18.2879 19.8357L16.1531 19.1492C16.0535 19.1172 15.9465 19.1172 15.8469 19.1492L13.7121 19.8357C13.3899 19.9393 13.06 19.6997 13.059 19.3613L13.0522 17.1187C13.0519 17.0142 13.0188 16.9124 12.9576 16.8276L11.645 15.0094C11.4469 14.735 11.5729 14.3472 11.8944 14.2416L14.0251 13.5422C14.1244 13.5096 14.2111 13.4467 14.2728 13.3623L15.5964 11.552Z" fill="#EEFBF6"/>
</svg>
