<svg width="28" height="24" viewBox="0 0 28 24" fill="none" xmlns="http://www.w3.org/2000/svg">
<path d="M0.5 6C0.5 3.17157 0.5 1.75736 1.37868 0.87868C2.25736 2.38419e-07 3.67157 0 6.5 0H21.5C24.3284 0 25.7426 2.38419e-07 26.6213 0.87868C27.5 1.75736 27.5 3.17157 27.5 6V7.875C27.5 7.9911 27.5 8.0491 27.4952 8.098C27.4484 8.5728 27.0728 8.9484 26.598 8.9952C26.5491 9 26.4911 9 26.375 9H26C24.3431 9 23 10.3431 23 12C23 13.6569 24.3431 15 26 15H26.375C26.4911 15 26.5491 15 26.598 15.0048C27.0728 15.0516 27.4484 15.4272 27.4952 15.902C27.5 15.9509 27.5 16.0089 27.5 16.125V18C27.5 20.8284 27.5 22.2426 26.6213 23.1213C25.7426 24 24.3284 24 21.5 24H6.5C3.67157 24 2.25736 24 1.37868 23.1213C0.5 22.2426 0.5 20.8284 0.5 18V16.125C0.5 16.0089 0.5 15.9509 0.50482 15.902C0.55158 15.4272 0.92721 15.0516 1.40198 15.0048C1.45087 15 1.50892 15 1.625 15H2C3.65685 15 5 13.6569 5 12C5 10.3431 3.65685 9 2 9H1.625C1.50892 9 1.45087 9 1.40198 8.9952C0.92721 8.9484 0.55158 8.5728 0.50482 8.098C0.5 8.0491 0.5 7.9911 0.5 7.875V6Z" fill="#7A7A7A"/>
<path d="M13.5961 7.55195C13.7958 7.27875 14.2036 7.27875 14.4033 7.55195L15.7269 9.36225C15.7886 9.44665 15.8753 9.50955 15.9746 9.54215L18.1053 10.2415C18.4268 10.3471 18.5528 10.7349 18.3547 11.0093L17.0421 12.8275C16.9809 12.9123 16.9478 13.0141 16.9475 13.1186L16.9407 15.3612C16.9397 15.6996 16.6098 15.9392 16.2876 15.8356L14.1528 15.1491C14.0532 15.1171 13.9462 15.1171 13.8466 15.1491L11.7118 15.8356C11.3896 15.9392 11.0597 15.6996 11.0587 15.3612L11.0519 13.1186C11.0516 13.0141 11.0185 12.9123 10.9573 12.8275L9.64467 11.0093C9.44657 10.7349 9.57257 10.3471 9.89407 10.2415L12.0248 9.54215C12.1241 9.50955 12.2108 9.44665 12.2725 9.36225L13.5961 7.55195Z" fill="#EEFBF6"/>
</svg>
