<svg width="20" height="24" viewBox="0 0 20 24" fill="none" xmlns="http://www.w3.org/2000/svg">
<path d="M9.98262 9.60001C12.6335 9.60001 14.7826 7.45101 14.7826 4.8C14.7826 2.14903 12.6335 0 9.98262 0C7.33162 0 5.18262 2.14903 5.18262 4.8C5.18262 7.45101 7.33162 9.60001 9.98262 9.60001Z" fill="#138F71"/>
<path d="M1.78229 23.9999C0.677721 23.9999 -0.218769 23.0946 0.0471709 22.0225C0.372311 20.7118 0.942171 19.4154 1.44236 18.1998C3.05589 14.2788 5.76206 11.1998 9.98236 11.1998C14.2026 11.1998 16.9089 14.2788 18.5224 18.1998C19.0226 19.4154 19.5924 20.7118 19.9175 22.0225C20.1835 23.0946 19.287 23.9999 18.1824 23.9999H1.78229Z" fill="#138F71"/>
</svg>
