<svg width="32" height="32" viewBox="0 0 32 32" fill="none" xmlns="http://www.w3.org/2000/svg">
<path d="M16 14.4C18.6509 14.4 20.8 12.251 20.8 9.59999C20.8 6.94902 18.6509 4.79999 16 4.79999C13.349 4.79999 11.2 6.94902 11.2 9.59999C11.2 12.251 13.349 14.4 16 14.4Z" fill="#138F71"/>
<path d="M7.79993 28.8C6.69536 28.8 5.79887 27.8947 6.06481 26.8226C6.38995 25.5119 6.95981 24.2155 7.46 22.9999C9.07353 19.0789 11.7797 15.9999 16 15.9999C20.2202 15.9999 22.9265 19.0789 24.54 22.9999C25.0402 24.2155 25.61 25.5119 25.9351 26.8226C26.2011 27.8947 25.3046 28.8 24.2 28.8H7.79993Z" fill="#138F71"/>
</svg>
