<svg width="20" height="25" viewBox="0 0 20 25" fill="none" xmlns="http://www.w3.org/2000/svg">
<path d="M10.0002 10.4001C12.6511 10.4001 14.8002 8.25106 14.8002 5.60005C14.8002 2.94908 12.6511 0.800049 10.0002 0.800049C7.3492 0.800049 5.2002 2.94908 5.2002 5.60005C5.2002 8.25106 7.3492 10.4001 10.0002 10.4001Z" fill="#7A7A7A"/>
<path d="M1.79987 24.8C0.695299 24.8 -0.201191 23.8947 0.064749 22.8226C0.389889 21.5119 0.959749 20.2155 1.45994 18.9999C3.07347 15.0789 5.77964 11.9999 9.99994 11.9999C14.2201 11.9999 16.9264 15.0789 18.5399 18.9999C19.0401 20.2155 19.6099 21.5119 19.935 22.8226C20.201 23.8947 19.3045 24.8 18.1999 24.8H1.79987Z" fill="#7A7A7A"/>
</svg>
